<?xml version="1.0" encoding="utf-8"?>
<!-- Generator: Adobe Illustrator 21.1.0, SVG Export Plug-In . SVG Version: 6.00 Build 0)  -->
<svg version="1.1" id="Layer_1" xmlns="http://www.w3.org/2000/svg" xmlns:xlink="http://www.w3.org/1999/xlink" x="0px" y="0px"
	 viewBox="0 0 257.4 130.1" style="enable-background:new 0 0 257.4 130.1;" xml:space="preserve">
<style type="text/css">
	.st0{fill:#D91A32;}
</style>
<g>
	<g>
		<path class="st0" d="M233.5,130.1c-9.6,0-19.4-0.6-29-1.2c-8.2-0.5-15.9-1-23.4-1.1l-118-1.9c-2.1,0-4-0.9-5.4-2.4
			c-1.4-1.5-2.1-3.6-2-5.6l2-28.3c0-0.2-0.1-0.4-0.3-0.4L6.9,85c-2-0.2-3.8-1.1-5.1-2.7c-1.3-1.5-1.9-3.5-1.7-5.5l6.5-70
			c0.4-4,3.9-7.1,8-6.8l151.7,10.5l3.6,3.6c0.7,0.5,1.3,0.9,1.9,1.4c3.3,2.4,5,3.5,8,3c2.6-0.4,4.9-1.8,7.4-3.1
			c4.5-2.5,10.1-5.7,17.3-2.1c3.6,1.8,7,4.1,10.3,6.4c1.6,1.1,3.1,2.1,4.7,3.1c1.3,0.8,2.9,1.9,4.2,3.4c1.2,1.5,1.9,3.2,2.4,4.8
			l12.1,32.4c1.4,3.8,2.8,7.6,3.7,11.6c1,4.8,1.3,9.8,0.6,14.8l-0.1,0.8c-0.2,1.4-0.4,2.8-0.1,3.8c0.3,1.1,1.3,2.4,2.3,3.7
			c1.8,2.2,4,4.9,3.8,8.7c0,0.6-0.1,1.1-0.2,1.7c-0.1,0.3-0.1,0.7-0.1,0.9c0.1,0.1,0.7,0.6,1.1,0.9c3,2.5,5.3,4.9,6.9,7.3
			c1.5,2.2,1.7,5,0.6,7.5c-1.1,2.4-3.4,4-6.1,4.3C245,129.9,239.3,130.1,233.5,130.1z M7.5,77.8L58.1,82c4.1,0.3,7.2,3.9,6.9,8
			l-2,28.3c0,0.1,0,0.2,0.1,0.3l118.2,2c7.7,0.1,15.8,0.6,23.7,1.1c15.1,0.9,30.7,1.9,44.9,0.4l3.3-2.6l-3,2
			c-1.5-2.3-3.8-4.4-5.4-5.7c-1.4-1.1-3-2.5-3.6-4.8c-0.4-1.4-0.2-2.7,0-3.7c0-0.3,0.1-0.6,0.1-0.8c0-1.1-1-2.4-2.3-4
			c-1.4-1.8-3-3.7-3.7-6.4c-0.6-2.4-0.3-4.6,0-6.5l0.1-0.8c0.5-4.1,0.3-8.3-0.5-12.3c-0.8-3.5-2-6.9-3.3-10.5l-12.1-32.5
			c-0.4-1.1-0.8-2.1-1.3-2.8c-0.5-0.7-1.5-1.3-2.5-1.9c-1.6-1-3.2-2.1-4.9-3.3c-3.1-2.1-6.3-4.3-9.5-5.9c-3.6-1.8-6.1-0.6-10.6,2
			c-2.8,1.6-5.9,3.3-9.8,4c-6.1,1-10-1.8-13.4-4.3c-0.6-0.5-1.3-0.9-2-1.4l-0.5-0.4l-1.9-2L14,7.2c-0.2,0-0.4,0.1-0.4,0.3l-6.5,70
			l0,3.9L7.5,77.8z"/>
	</g>
</g>
</svg>
