<svg xmlns="http://www.w3.org/2000/svg" viewBox="0 0 35.999 45"><defs><style>.a,.d{fill:#fff;}.b{opacity:0.505;}.c,.f{fill:#d22630;}.e,.f{stroke:none;}</style></defs><g transform="translate(-3306 -1483)"><g class="a" transform="translate(-6888 -9144)"><path class="e" d="M 10216.5 10671 C 10213.5947265625 10671 10210.7802734375 10670.431640625 10208.1318359375 10669.310546875 C 10205.5703125 10668.2275390625 10203.2705078125 10666.677734375 10201.2958984375 10664.703125 C 10199.322265625 10662.728515625 10197.771484375 10660.4287109375 10196.6884765625 10657.8681640625 C 10195.568359375 10655.21875 10195 10652.4033203125 10195 10649.5009765625 C 10195 10646.59765625 10195.568359375 10643.7822265625 10196.6884765625 10641.1318359375 C 10197.7724609375 10638.5712890625 10199.3232421875 10636.2705078125 10201.2958984375 10634.2958984375 C 10203.2705078125 10632.3212890625 10205.5703125 10630.771484375 10208.1318359375 10629.6884765625 C 10210.7802734375 10628.5673828125 10213.5947265625 10627.9990234375 10216.5 10627.9990234375 C 10218.8681640625 10627.9990234375 10221.1962890625 10628.3818359375 10223.41796875 10629.1357421875 C 10225.41015625 10629.8125 10227.28515625 10630.7763671875 10228.9990234375 10632.00390625 L 10228.9990234375 10666.9951171875 C 10227.283203125 10668.2236328125 10225.408203125 10669.1875 10223.41796875 10669.86328125 C 10221.1962890625 10670.6171875 10218.8681640625 10671 10216.5 10671 Z"/><path class="f" d="M 10216.5 10670 C 10218.7587890625 10670 10220.978515625 10669.6357421875 10223.095703125 10668.9169921875 C 10224.8330078125 10668.3271484375 10226.478515625 10667.5068359375 10227.9990234375 10666.4736328125 L 10227.9990234375 10632.525390625 C 10226.4794921875 10631.4931640625 10224.8349609375 10630.6728515625 10223.0966796875 10630.08203125 C 10220.978515625 10629.36328125 10218.7587890625 10628.9990234375 10216.5 10628.9990234375 C 10213.7294921875 10628.9990234375 10211.0458984375 10629.541015625 10208.5205078125 10630.609375 C 10206.0791015625 10631.642578125 10203.8857421875 10633.1201171875 10202.00390625 10635.001953125 C 10200.1220703125 10636.88671875 10198.6435546875 10639.080078125 10197.609375 10641.5205078125 C 10196.5419921875 10644.0478515625 10196 10646.732421875 10196 10649.5009765625 C 10196 10652.2685546875 10196.5419921875 10654.953125 10197.609375 10657.478515625 C 10198.642578125 10659.919921875 10200.12109375 10662.1123046875 10202.0029296875 10663.99609375 C 10203.8857421875 10665.87890625 10206.0791015625 10667.3564453125 10208.521484375 10668.3896484375 C 10211.0458984375 10669.4580078125 10213.7294921875 10670 10216.5 10670 M 10216.5 10672 C 10213.4609375 10672 10210.5146484375 10671.4052734375 10207.7421875 10670.2314453125 C 10205.0625 10669.0986328125 10202.6552734375 10667.4765625 10200.5888671875 10665.41015625 C 10198.5234375 10663.34375 10196.9013671875 10660.9375 10195.767578125 10658.2578125 C 10194.5947265625 10655.484375 10194 10652.5380859375 10194 10649.5009765625 C 10194 10646.4638671875 10194.5947265625 10643.5166015625 10195.767578125 10640.7421875 C 10196.90234375 10638.0615234375 10198.5244140625 10635.6552734375 10200.5888671875 10633.5888671875 C 10202.6552734375 10631.5224609375 10205.0625 10629.900390625 10207.7421875 10628.767578125 C 10210.5146484375 10627.59375 10213.4609375 10626.9990234375 10216.5 10626.9990234375 C 10218.9775390625 10626.9990234375 10221.4140625 10627.3994140625 10223.7392578125 10628.1884765625 C 10225.9873046875 10628.9521484375 10228.09375 10630.0654296875 10229.9990234375 10631.4970703125 L 10229.9990234375 10667.501953125 C 10228.0927734375 10668.93359375 10225.9873046875 10670.046875 10223.7392578125 10670.810546875 C 10221.4140625 10671.599609375 10218.9775390625 10672 10216.5 10672 Z"/></g><g transform="translate(3322.607 1494.617)"><g class="b" transform="translate(2.118 3.766)"><rect class="c" width="8.511" height="4.435" transform="translate(0 10.859)"/><rect class="c" width="8.511" height="4.435" transform="translate(0 5.424)"/><rect class="c" width="8.511" height="4.435"/></g><path class="c" d="M10.819,0H1.968A1.927,1.927,0,0,0,0,1.968V19.7a1.927,1.927,0,0,0,1.968,1.968h8.851A1.927,1.927,0,0,0,12.787,19.7V1.968A1.927,1.927,0,0,0,10.819,0Zm.809,18.051H1.119V2.767H11.628V18.051Z"/><circle class="d" cx="0.979" cy="0.979" r="0.979" transform="translate(5.414 18.89)"/><path class="d" d="M39.4,10.02a.222.222,0,0,1,.22-.22h4.485a.222.222,0,0,1,.22.22v.06a.222.222,0,0,1-.22.22H39.62a.222.222,0,0,1-.22-.22Z" transform="translate(-35.464 -8.821)"/></g></g></svg>