<svg xmlns="http://www.w3.org/2000/svg" viewBox="0 0 630 572.4"><defs><style>.a{fill:#af272f;}.b{fill:#7c2529;}.c{fill:#d22630;}</style></defs><g transform="translate(-236 -346)"><g transform="translate(554.691 525.008)"><path class="a" d="M436,505.627l142.9-51.239V244.9L436,293.581V505.627" transform="translate(-436 -244.9)"/></g><g transform="translate(411.792 525.008)"><path class="b" d="M383.4,505.627,240.5,454.388V244.9l142.9,48.681V505.627" transform="translate(-240.5 -244.9)"/></g><path class="c" d="M383.4,276.576,526.3,227.9,383.4,181.7,240.5,227.9Z" transform="translate(171.292 297.112)"/><path class="a" d="M600.543,236.606A286.365,286.365,0,0,0,45.684,199.548L15.2,137.856,0,145.385l45.245,91.587,88.079-51.751L124.7,170.529l-63.738,37.5A271.382,271.382,0,0,1,151.6,75.068,269.305,269.305,0,0,1,583.8,239.53a8.45,8.45,0,0,0,8.333,7.017,9.907,9.907,0,0,0,1.462-.146A8.454,8.454,0,0,0,600.543,236.606Z" transform="translate(236 346)"/><path class="b" d="M644.453,567.356l-40.714-93.634-90.491,47.365,7.894,15.057,65.492-34.354A266.342,266.342,0,0,1,553.6,565.674a271.255,271.255,0,0,1-58.549,60.668,269.42,269.42,0,0,1-253.2,38.375A269.582,269.582,0,0,1,70.516,471.456a8.5,8.5,0,0,0-16.592,3.728A285.921,285.921,0,0,0,333,697.463a283.97,283.97,0,0,0,172.283-57.6A288,288,0,0,0,567.557,575.4,282.83,282.83,0,0,0,601.4,510.927l27.41,63.08Z" transform="translate(221.547 220.938)"/></g></svg>